# 3ds Max Wavefront OBJ Exporter v0.97b - (c)2007 guruware
# File Created: 10.02.2012 14:31:07

mtllib kub3.mtl

#
# object Box001
#

v  -0.50 0.00 0.50
v  -0.50 0.00 -0.50
v  0.50 0.00 -0.50
v  0.50 0.00 0.50
v  -0.50 1.00 0.50
v  0.50 1.00 0.50
v  0.50 1.00 -0.50
v  -0.50 1.00 -0.50
# 8 vertices

vn 0.00 -1.00 -0.00
vn 0.00 1.00 -0.00
vn 0.00 0.00 1.00
vn 1.00 0.00 -0.00
vn 0.00 0.00 -1.00
vn -1.00 0.00 -0.00
# 6 vertex normals

vt 1.00 0.00 0.00
vt 1.00 1.00 0.00
vt -0.00 1.00 0.00
vt 0.00 -0.00 0.00
vt -0.00 0.00 1.00
vt 1.00 -0.00 1.00
vt 1.00 1.00 1.00
vt 0.00 1.00 1.00
vt -0.00 0.00 0.00
vt 1.00 0.00 -0.00
vt 1.00 1.00 -0.00
vt 1.00 0.00 1.00
vt -0.00 1.00 1.00
# 13 texture coords

g Box001
usemtl 02___Default
f 1/1/1 2/2/1 3/3/1 4/4/1 
f 5/5/2 6/6/2 7/7/2 8/8/2 
f 1/9/3 4/10/3 6/11/3 5/3/3 
f 4/5/4 3/12/4 7/7/4 6/13/4 
f 3/5/5 2/12/5 8/7/5 7/13/5 
f 2/9/6 1/10/6 5/11/6 8/3/6 
# 6 polygons

