# 3ds Max Wavefront OBJ Exporter v0.97b - (c)2007 guruware
# File Created: 15.02.2012 14:35:06

mtllib pyra.mtl

#
# object Pyramid001
#

v  0.00 1.46 -0.00
v  -1.43 0.00 0.82
v  1.43 0.00 0.82
v  1.43 0.00 -0.82
v  -1.43 0.00 -0.82
v  0.00 0.00 -0.00
# 6 vertices

vn 0.00 0.49 0.87
vn 0.71 0.70 -0.00
vn 0.00 0.49 -0.87
vn -0.71 0.70 -0.00
vn 0.00 -1.00 -0.00
# 5 vertex normals

vt 0.50 1.00 0.00
vt 0.00 0.00 0.00
vt 1.00 0.00 0.00
vt -0.37 0.00 0.00
vt 0.63 0.00 0.00
vt 0.00 1.00 0.00
vt 0.50 0.50 0.00
vt 1.00 1.00 0.00
# 8 texture coords

g Pyramid001
usemtl 01___Default
f 1/1/1 2/2/1 3/3/1 
f 1/1/2 3/4/2 4/5/2 
f 1/1/3 4/2/3 5/3/3 
f 1/1/4 5/4/4 2/5/4 
f 2/6/5 6/7/5 3/8/5 
f 3/8/5 6/7/5 4/3/5 
f 4/3/5 6/7/5 5/2/5 
f 5/2/5 6/7/5 2/6/5 
# 8 faces

