# 3ds Max Wavefront OBJ Exporter v0.97b - (c)2007 guruware
# File Created: 10.03.2012 19:50:11

mtllib treee.mtl

#
# object Box001
#

v  -0.0006 0.0000 24.2032
v  -0.0006 0.0000 -24.2032
v  0.0006 0.0000 -24.2032
v  0.0006 0.0000 24.2032
v  -0.0006 51.4241 24.2032
v  0.0006 51.4241 24.2032
v  0.0006 51.4241 -24.2032
v  -0.0006 51.4241 -24.2032
# 8 vertices

vn 0.0000 -1.0000 -0.0000
vn 0.0000 1.0000 -0.0000
vn 0.0000 0.0000 1.0000
vn 1.0000 0.0000 -0.0000
vn 0.0000 0.0000 -1.0000
vn -1.0000 0.0000 -0.0000
# 6 vertex normals

vt 0.9226 0.7202 0.0000
vt 0.6510 0.7202 0.0000
vt 0.6510 0.7183 0.0000
vt 0.9226 0.7183 0.0000
vt 0.6510 0.8552 0.0000
vt 0.6510 0.8534 0.0000
vt 0.9226 0.8534 0.0000
vt 0.9226 0.8552 0.0000
vt 0.3305 0.9562 0.0000
vt 0.3305 0.9544 0.0000
vt 0.6191 0.9544 0.0000
vt 0.6191 0.9562 0.0000
vt 0.0100 0.2817 0.0000
vt 0.0100 0.0100 0.0000
vt 0.2986 0.0100 0.0000
vt 0.2986 0.2817 0.0000
vt 0.0100 0.9562 0.0000
vt 0.0100 0.9544 0.0000
vt 0.2986 0.9544 0.0000
vt 0.2986 0.9562 0.0000
vt 0.0100 0.5852 0.0000
vt 0.0100 0.3135 0.0000
vt 0.2986 0.3135 0.0000
vt 0.2986 0.5852 0.0000
# 24 texture coords

g Box001
usemtl 01___Default
f 1/1/1 2/2/1 3/3/1 
f 3/3/1 4/4/1 1/1/1 
f 5/5/2 6/6/2 7/7/2 
f 7/7/2 8/8/2 5/5/2 
f 1/9/3 4/10/3 6/11/3 
f 6/11/3 5/12/3 1/9/3 
f 4/13/4 3/14/4 7/15/4 
f 7/15/4 6/16/4 4/13/4 
f 3/17/5 2/18/5 8/19/5 
f 8/19/5 7/20/5 3/17/5 
f 2/21/6 1/22/6 5/23/6 
f 5/23/6 8/24/6 2/21/6 
# 12 faces

#
# object Box002
#

v  -0.0006 0.0000 24.2032
v  -0.0006 0.0000 -24.2032
v  0.0006 0.0000 -24.2032
v  0.0006 0.0000 24.2032
v  -0.0006 51.4241 24.2032
v  0.0006 51.4241 24.2032
v  0.0006 51.4241 -24.2032
v  -0.0006 51.4241 -24.2032
# 8 vertices

vn 0.0000 -1.0000 -0.0000
vn 0.0000 1.0000 -0.0000
vn 0.0000 0.0000 1.0000
vn 1.0000 0.0000 -0.0000
vn 0.0000 0.0000 -1.0000
vn -1.0000 0.0000 -0.0000
# 6 vertex normals

vt 0.9226 0.9227 0.0000
vt 0.6510 0.9227 0.0000
vt 0.6510 0.9209 0.0000
vt 0.9226 0.9209 0.0000
vt 0.6510 0.8890 0.0000
vt 0.6510 0.8871 0.0000
vt 0.9226 0.8871 0.0000
vt 0.9226 0.8890 0.0000
vt 0.3305 0.9900 0.0000
vt 0.3305 0.9881 0.0000
vt 0.6191 0.9881 0.0000
vt 0.6191 0.9900 0.0000
vt 0.0100 0.8887 0.0000
vt 0.0100 0.6171 0.0000
vt 0.2986 0.6171 0.0000
vt 0.2986 0.8887 0.0000
vt 0.6510 0.6190 0.0000
vt 0.6510 0.6171 0.0000
vt 0.9395 0.6171 0.0000
vt 0.9395 0.6190 0.0000
vt 0.3305 0.2817 0.0000
vt 0.3305 0.0100 0.0000
vt 0.6191 0.0100 0.0000
vt 0.6191 0.2817 0.0000
# 24 texture coords

g Box002
usemtl 01___Default
f 9/25/7 10/26/7 11/27/7 
f 11/27/7 12/28/7 9/25/7 
f 13/29/8 14/30/8 15/31/8 
f 15/31/8 16/32/8 13/29/8 
f 9/33/9 12/34/9 14/35/9 
f 14/35/9 13/36/9 9/33/9 
f 12/37/10 11/38/10 15/39/10 
f 15/39/10 14/40/10 12/37/10 
f 11/41/11 10/42/11 16/43/11 
f 16/43/11 15/44/11 11/41/11 
f 10/45/12 9/46/12 13/47/12 
f 13/47/12 16/48/12 10/45/12 
# 12 faces

#
# object Box003
#

v  24.2032 0.0000 0.0006
v  -24.2032 0.0000 0.0006
v  -24.2032 0.0000 -0.0006
v  24.2032 0.0000 -0.0006
v  24.2032 51.4241 0.0006
v  24.2032 51.4241 -0.0006
v  -24.2032 51.4241 -0.0006
v  -24.2032 51.4241 0.0006
# 8 vertices

vn 0.0000 -1.0000 -0.0000
vn 0.0000 1.0000 -0.0000
vn 1.0000 0.0000 -0.0000
vn -0.0000 0.0000 -1.0000
vn -1.0000 0.0000 0.0000
vn 0.0000 0.0000 1.0000
# 6 vertex normals

vt 0.9226 0.6865 0.0000
vt 0.6510 0.6865 0.0000
vt 0.6510 0.6846 0.0000
vt 0.9226 0.6846 0.0000
vt 0.6510 0.8215 0.0000
vt 0.6510 0.8196 0.0000
vt 0.9226 0.8196 0.0000
vt 0.9226 0.8215 0.0000
vt 0.6510 0.6527 0.0000
vt 0.6510 0.6508 0.0000
vt 0.9395 0.6508 0.0000
vt 0.9395 0.6527 0.0000
vt 0.6510 0.2817 0.0000
vt 0.6510 0.0100 0.0000
vt 0.9395 0.0100 0.0000
vt 0.9395 0.2817 0.0000
vt 0.0100 0.9900 0.0000
vt 0.0100 0.9881 0.0000
vt 0.2986 0.9881 0.0000
vt 0.2986 0.9900 0.0000
vt 0.3305 0.5852 0.0000
vt 0.3305 0.3135 0.0000
vt 0.6191 0.3135 0.0000
vt 0.6191 0.5852 0.0000
# 24 texture coords

g Box003
usemtl 01___Default
f 17/49/13 18/50/13 19/51/13 
f 19/51/13 20/52/13 17/49/13 
f 21/53/14 22/54/14 23/55/14 
f 23/55/14 24/56/14 21/53/14 
f 17/57/15 20/58/15 22/59/15 
f 22/59/15 21/60/15 17/57/15 
f 20/61/16 19/62/16 23/63/16 
f 23/63/16 22/64/16 20/61/16 
f 19/65/17 18/66/17 24/67/17 
f 24/67/17 23/68/17 19/65/17 
f 18/69/18 17/70/18 21/71/18 
f 21/71/18 24/72/18 18/69/18 
# 12 faces

#
# object Box004
#

v  24.2032 0.0000 0.0006
v  -24.2032 0.0000 0.0006
v  -24.2032 0.0000 -0.0006
v  24.2032 0.0000 -0.0006
v  24.2032 51.4241 0.0006
v  24.2032 51.4241 -0.0006
v  -24.2032 51.4241 -0.0006
v  -24.2032 51.4241 0.0006
# 8 vertices

vn 0.0000 -1.0000 -0.0000
vn 0.0000 1.0000 -0.0000
vn 1.0000 0.0000 -0.0000
vn -0.0000 0.0000 -1.0000
vn -1.0000 0.0000 0.0000
vn 0.0000 0.0000 1.0000
# 6 vertex normals

vt 0.9226 0.7540 0.0000
vt 0.6510 0.7540 0.0000
vt 0.6510 0.7521 0.0000
vt 0.9226 0.7521 0.0000
vt 0.6510 0.7877 0.0000
vt 0.6510 0.7858 0.0000
vt 0.9226 0.7858 0.0000
vt 0.9226 0.7877 0.0000
vt 0.3305 0.9225 0.0000
vt 0.3305 0.9206 0.0000
vt 0.6191 0.9206 0.0000
vt 0.6191 0.9225 0.0000
vt 0.3305 0.8887 0.0000
vt 0.3305 0.6171 0.0000
vt 0.6191 0.6171 0.0000
vt 0.6191 0.8887 0.0000
vt 0.0100 0.9225 0.0000
vt 0.0100 0.9206 0.0000
vt 0.2986 0.9206 0.0000
vt 0.2986 0.9225 0.0000
vt 0.6510 0.5852 0.0000
vt 0.6510 0.3135 0.0000
vt 0.9395 0.3135 0.0000
vt 0.9395 0.5852 0.0000
# 24 texture coords

g Box004
usemtl 01___Default
f 25/73/19 26/74/19 27/75/19 
f 27/75/19 28/76/19 25/73/19 
f 29/77/20 30/78/20 31/79/20 
f 31/79/20 32/80/20 29/77/20 
f 25/81/21 28/82/21 30/83/21 
f 30/83/21 29/84/21 25/81/21 
f 28/85/22 27/86/22 31/87/22 
f 31/87/22 30/88/22 28/85/22 
f 27/89/23 26/90/23 32/91/23 
f 32/91/23 31/92/23 27/89/23 
f 26/93/24 25/94/24 29/95/24 
f 29/95/24 32/96/24 26/93/24 
# 12 faces

