# 3ds Max Wavefront OBJ Exporter v0.97b - (c)2007 guruware
# File Created: 20.02.2012 14:44:34

mtllib bigArrow.mtl

#
# object Arrow_a2_0
#

v  -12.4317 4.5249 0.0000
v  -12.4317 4.5249 -0.4664
v  -12.4317 4.1364 0.0000
v  -12.4317 4.9134 -0.4664
v  -12.4317 4.9134 0.0000
v  -12.4317 4.5249 0.4664
v  -12.4317 4.1364 0.4664
v  5.8274 4.5249 -0.4664
v  5.8274 4.1364 -0.0000
v  5.8274 4.9134 -0.0000
v  5.8274 4.5249 0.4664
v  6.9928 4.9134 -0.4664
v  6.9928 4.5249 -0.9328
v  6.9928 4.9134 0.4664
v  6.9928 4.5249 0.9328
v  6.9928 4.1364 0.4664
v  6.9928 4.1364 -0.4664
v  12.4317 4.5249 -0.0000
# 18 vertices

vn -1.0000 0.0000 0.0000
vn -0.0000 -0.9100 -0.4200
vn -0.0000 -0.5000 -0.8700
vn -0.0000 -0.8800 -0.4800
vn -0.0000 -0.5800 -0.8100
vn -0.0000 0.4100 -0.9100
vn -0.0000 0.8300 -0.5600
vn -0.0000 0.4200 -0.9100
vn -0.0000 0.8100 -0.5800
vn 0.0000 0.8800 0.4800
vn 0.0000 0.9100 0.4200
vn 0.0000 0.0500 1.0000
vn 0.0000 0.1000 1.0000
vn 0.0000 -0.8300 0.5600
vn 0.0000 -0.8100 0.5800
vn -0.4300 0.0200 -0.9000
vn -0.0800 0.9200 -0.3900
vn -0.1400 0.0100 -0.9900
vn -0.1800 0.8500 -0.4900
vn -0.0400 0.9300 0.3700
vn -0.2200 0.9100 0.3400
vn -0.1400 -0.0100 0.9900
vn -0.4300 -0.0200 0.9000
vn -0.0800 -0.9200 0.3900
vn -0.1800 -0.8500 0.4900
vn -0.0400 -0.9300 -0.3700
vn -0.2200 -0.9100 -0.3400
vn 1.0000 0.0000 -0.0000
# 28 vertex normals

vt -0.0200 0.5500 0.0000
vt -0.0200 0.5700 0.0000
vt -0.0200 0.5600 0.0000
vt -0.0200 0.5300 0.0000
vt -0.0200 0.5200 0.0000
vt -0.0200 0.5400 0.0000
vt -0.6100 0.5700 0.0000
vt -0.6100 0.5600 0.0000
vt -0.6100 0.5300 0.0000
vt -0.6100 0.5200 0.0000
vt -0.6100 0.5400 0.0000
vt -0.6100 0.5500 0.0000
vt 0.0600 0.5000 0.0000
vt 0.0600 0.4500 0.0000
vt 0.0800 0.4500 0.0000
vt 0.0500 0.5000 0.0000
vt 0.0300 0.4500 0.0000
vt 0.0400 0.5000 0.0000
vt 0.0100 0.4500 0.0000
vt 0.0300 0.5000 0.0000
vt 0.0500 0.3200 0.0000
# 21 texture coords

g Arrow_a2_0
usemtl Oxybeles
s 1
f 1/1/1 2/2/1 3/3/1 
f 1/1/1 4/4/1 2/5/1 
f 1/1/1 5/6/1 4/4/1 
f 1/1/1 6/6/1 5/6/1 
f 1/1/1 7/1/1 6/6/1 
f 1/1/1 3/3/1 7/1/1 
f 3/3/2 8/7/3 9/8/4 
f 3/3/2 2/2/5 8/7/3 
f 2/5/6 10/9/7 8/10/8 
f 2/5/6 4/4/9 10/9/7 
f 4/4/9 10/11/10 10/9/7 
f 4/4/9 5/6/11 10/11/10 
f 5/6/11 11/12/12 10/11/10 
f 5/6/11 6/6/13 11/12/12 
f 6/6/13 9/12/14 11/12/12 
f 6/6/13 7/1/15 9/12/14 
f 7/1/15 9/8/4 9/12/14 
f 7/1/15 3/3/2 9/8/4 
f 8/13/16 12/14/17 13/15/18 
f 8/13/16 10/16/19 12/14/17 
f 10/16/19 14/17/20 12/14/17 
f 10/16/19 10/18/21 14/17/20 
f 10/18/21 15/19/22 14/17/20 
f 10/18/21 11/20/23 15/19/22 
f 11/20/23 16/17/24 15/19/22 
f 11/20/23 9/18/25 16/17/24 
f 9/18/25 17/14/26 16/17/24 
f 9/18/25 9/16/27 17/14/26 
f 9/16/27 13/15/18 17/14/26 
f 9/16/27 8/13/16 13/15/18 
f 18/21/28 13/15/18 12/14/17 
f 18/21/28 12/14/17 14/17/20 
f 18/21/28 14/17/20 15/19/22 
f 18/21/28 15/19/22 16/17/24 
f 18/21/28 16/17/24 17/14/26 
f 18/21/28 17/14/26 13/15/18 
# 0 polygons - 36 triangles

